<svg xmlns="http://www.w3.org/2000/svg" width="193" height="31" fill="none" viewBox="0 0 193 31"><path fill="#2B60A0" fill-rule="evenodd" d="M34.986 17.683c-.247-1.211-1.847-2.749-4.09-3.796-1.629-.76-3.238-1.094-4.413-.995h-8.001s-.745-3.516 2.568-3.873l2.234-.072 2.542-6.536s-6.992-5.403-12.736 1.02c0 0-2.821 3.235-2.536 9.46H0l5.675 7.862 4.894-.011v10.224l7.919-2.58v-7.644l8.154-.01-.011 10.234 8.391-2.58V17.731l-.036-.048Zm-.85-15.751-7.685 9.095c.927-.265 2.178-.191 3.513.222.16.044.334.103.537.182a11.015 11.015 0 0 1 1.687.799c.089.046.18.101.273.163 1.859 1.15 3.095 2.681 3.28 3.97l.023-13.883a.906.906 0 0 0 0-.141v-.002a.885.885 0 0 0-1.628-.405Zm24.863 2.405L54.02 10.66s-6.819-3.213-8.701 2c0 0-1.236 4.253.783 6.408 0 0 1.484 1.579 3.784 1.29v-4.551h7.599s3.084 6.296-1.668 12.284c-1.428 1.8-4.63 3.916-9.968 2.298 0 0-5.676-1.997-7.814-9.779 0 0-1.937-8.545.915-13.105 1.265-2.023 2.966-5.44 9.246-6.428 1.29-.203 2.575-.634 6.457.45C55.743 1.83 59 4.336 59 4.336Zm74.397 9.58v14.284l-7.862 2.765V.559l7.917 3.1c10.023-7.084 15.885 4.959 15.885 4.959V28.22l-7.459 2.739V13.313l-.017-.015a4.243 4.243 0 0 0-8.464.025v.006a4.095 4.095 0 0 0 0 .588Zm40.62-13.42v25.789s2.737 4.68 6.579 4.68l6.733.034 2.448-6.882-7.215.03.02-6.8h10.4l-3.194-8.2h-7.177V4.686L174.016.497ZM75.261 30.64l6.66-2.347v-13.93a2.892 2.892 0 0 1-.016-.496.85.85 0 0 1 .165-.818c.428-1.193 1.624-2.051 3.031-2.051 1.768 0 3.201 1.353 3.201 3.022 0 .137-.01.272-.028.404V30.96l7.195-2.647V9.363S91.644-2.28 81.974 4.567l-2.088 1.5c-1.965-2.817-5.73-5.794-11.794-1.5l-7.637-2.996v29.394l7.584-2.673V13.912l.036-.04a3.139 3.139 0 0 1 6.227-.051l.035.032v17.113l.054-.02v.014l.87-.32Zm97.218-3.29-4.978-6.499s-7.525 3.53-8.667-2.035c-.141-.689-.155-2.306 1.057-3.226 0 0 4.024.716 5.487.68 1.151-.026 4.149-.85 5.497-2.636 1.687-2.236 2.746-6.486-1.039-10.67-1.567-1.732-5.169-4.055-10.506-2.392 0 0-5.677 2.053-7.815 10.051 0 0-1.937 8.783.915 13.471 1.265 2.08 2.967 5.59 9.246 6.607 1.29.209 2.575.65 6.458-.462 1.09-.313 4.345-2.889 4.345-2.889Zm-9.206-22.085c1.767 0 3.199 1.46 3.199 3.26 0 1.8-1.432 3.26-3.199 3.26-1.766 0-3.198-1.46-3.198-3.26 0-1.8 1.432-3.26 3.198-3.26Zm-47.951 22.44-.051.065c-1.368 1.724-5.309 3.944-10.422 2.394 0 0-5.438-1.914-7.487-9.37 0 0-1.855-8.186.877-12.555 1.212-1.938 2.842-5.21 8.858-6.159 1.236-.194 2.467-.606 6.187.431.595.166 1.864 1.017 2.845 1.718l6.726-2.657v29.394l-7.532-2.673-.001-.588Zm-.038-17.293-.013.03.013.014v-.044Zm-5.483-1.306c3.133 0 5.673 3.141 5.673 7.016s-2.54 7.016-5.673 7.016c-3.134 0-5.674-3.141-5.674-7.016s2.54-7.016 5.674-7.016Zm.214 3.495a3.473 3.473 0 1 1 0 6.947 3.473 3.473 0 0 1 0-6.946Z" clip-rule="evenodd"/><mask id="mask0_3284_92" width="193" height="31" x="0" y="0" maskUnits="userSpaceOnUse" style="mask-type:alpha"><path fill="#63BC46" fill-rule="evenodd" d="M34.986 17.683c-.247-1.211-1.847-2.749-4.09-3.796-1.629-.76-3.238-1.094-4.413-.995h-8.001s-.745-3.516 2.568-3.873l2.234-.072 2.542-6.536s-6.992-5.403-12.736 1.02c0 0-2.821 3.235-2.536 9.46H0l5.675 7.862 4.894-.011v10.224l7.919-2.58v-7.644l8.154-.01-.011 10.234 8.391-2.58V17.731l-.036-.048Zm-.85-15.751-7.685 9.095c.927-.265 2.178-.191 3.513.222.16.044.334.103.537.182a11.015 11.015 0 0 1 1.687.799c.089.046.18.101.273.163 1.859 1.15 3.095 2.681 3.28 3.97l.023-13.883a.906.906 0 0 0 0-.141v-.002a.885.885 0 0 0-1.628-.405Zm24.863 2.405L54.02 10.66s-6.819-3.213-8.701 2c0 0-1.236 4.253.783 6.408 0 0 1.484 1.579 3.784 1.29v-4.551h7.599s3.084 6.296-1.668 12.284c-1.428 1.8-4.63 3.916-9.968 2.298 0 0-5.676-1.997-7.814-9.779 0 0-1.937-8.545.915-13.105 1.265-2.023 2.966-5.44 9.246-6.428 1.29-.203 2.575-.634 6.457.45C55.743 1.83 59 4.336 59 4.336Zm74.397 9.58v14.284l-7.862 2.765V.559l7.917 3.1c10.023-7.084 15.885 4.959 15.885 4.959V28.22l-7.459 2.739V13.313l-.017-.015a4.243 4.243 0 0 0-8.464.025v.006a4.095 4.095 0 0 0 0 .588Zm40.62-13.42v25.789s2.737 4.68 6.579 4.68l6.733.034 2.448-6.882-7.215.03.02-6.8h10.4l-3.194-8.2h-7.177V4.686L174.016.497ZM75.261 30.64l6.66-2.347v-13.93a2.892 2.892 0 0 1-.016-.496.85.85 0 0 1 .165-.818c.428-1.193 1.624-2.051 3.031-2.051 1.768 0 3.201 1.353 3.201 3.022 0 .137-.01.272-.028.404V30.96l7.195-2.647V9.363S91.644-2.28 81.974 4.567l-2.088 1.5c-1.965-2.817-5.73-5.794-11.794-1.5l-7.637-2.996v29.394l7.584-2.673V13.912l.036-.04a3.139 3.139 0 0 1 6.227-.051l.035.032v17.113l.054-.02v.014l.87-.32Zm97.218-3.29-4.978-6.499s-7.525 3.53-8.667-2.035c-.141-.689-.155-2.306 1.057-3.226 0 0 4.024.716 5.487.68 1.151-.026 4.149-.85 5.497-2.636 1.687-2.236 2.746-6.486-1.039-10.67-1.567-1.732-5.169-4.055-10.506-2.392 0 0-5.677 2.053-7.815 10.051 0 0-1.937 8.783.915 13.471 1.265 2.08 2.967 5.59 9.246 6.607 1.29.209 2.575.65 6.458-.462 1.09-.313 4.345-2.889 4.345-2.889Zm-9.206-22.085c1.767 0 3.199 1.46 3.199 3.26 0 1.8-1.432 3.26-3.199 3.26-1.766 0-3.198-1.46-3.198-3.26 0-1.8 1.432-3.26 3.198-3.26Zm-47.951 22.44-.051.065c-1.368 1.724-5.309 3.944-10.422 2.394 0 0-5.438-1.914-7.487-9.37 0 0-1.855-8.186.877-12.555 1.212-1.938 2.842-5.21 8.858-6.159 1.236-.194 2.467-.606 6.187.431.595.166 1.864 1.017 2.845 1.718l6.726-2.657v29.394l-7.532-2.673-.001-.588Zm-.039-17.293-.012.03.013.014-.001-.044Zm-5.482-1.306c3.133 0 5.673 3.141 5.673 7.016s-2.54 7.016-5.673 7.016c-3.134 0-5.674-3.141-5.674-7.016s2.54-7.016 5.674-7.016Zm.214 3.495a3.473 3.473 0 1 1 0 6.947 3.473 3.473 0 0 1 0-6.946Z" clip-rule="evenodd"/></mask><g mask="url(#mask0_3284_92)"><path fill="url(#paint0_linear_3284_92)" d="M234.977-12.807C214.175 10.597 112.107 27.33-2.89 20.846l-5.67-49.849C35.355-12.755 134.904 1.632 234.977-12.807Z"/></g><defs><linearGradient id="paint0_linear_3284_92" x1="56.052" x2="55.9" y1="-40.167" y2="65.078" gradientUnits="userSpaceOnUse"><stop offset=".46" stop-color="#4FB94A"/><stop offset=".815" stop-color="#1F3B6C"/></linearGradient></defs></svg>